<?xml version="1.0" encoding="iso-8859-1"?>
<!-- Generator: Adobe Illustrator 21.1.0, SVG Export Plug-In . SVG Version: 6.00 Build 0)  -->
<svg version="1.1" id="Layer_1" xmlns="http://www.w3.org/2000/svg" xmlns:xlink="http://www.w3.org/1999/xlink" x="0px" y="0px"
	 viewBox="0 0 24 24" enable-background="new 0 0 24 24" xml:space="preserve">
<g>
	<path fill="#303C42" d="M17.6443481,11.1124878C18.4879761,9.9562988,18.9921875,8.5375977,18.9921875,7
		c0-3.8598633-3.1401367-7-7-7s-7,3.1401367-7,7c0,1.5444336,0.5087891,2.968811,1.3591919,4.1277466
		C5.982666,12.4487305,4,19.6870117,4,22.5c0,0.2021484,0.121582,0.3847656,0.3085938,0.4619141
		c0.1860352,0.078125,0.4023438,0.0351563,0.5449219-0.1083984c0.9404297-0.9399414,2.3613281-1.5371094,2.9838867-1.7675781
		l2.2783203,2.734375C10.2128906,23.9365234,10.3544922,24,10.5,24c0.0556641,0,0.1123047-0.0092773,0.1669922-0.0288086
		C10.8637695,23.9013672,10.9970703,23.7163086,11,23.5073242c0.0405884-2.7915649,0.3482666-7.2237549,1-8.9997559
		c0.6517334,1.776001,0.9594116,6.2081909,1,8.9997559c0.0029297,0.2089844,0.1362305,0.394043,0.3330078,0.4638672
		C13.3876953,23.9907227,13.4443359,24,13.5,24c0.1455078,0,0.2871094-0.0634766,0.3842773-0.1796875l2.2788086-2.7348633
		c0.6210938,0.2294922,2.0400391,0.824707,2.9833984,1.7680664c0.144043,0.1435547,0.3583984,0.1875,0.5449219,0.1083984
		C19.878418,22.8847656,20,22.7021484,20,22.5C20,19.6779175,18.0037231,12.399353,17.6443481,11.1124878z"/>
	<circle fill="#FFCB29" cx="12.0086374" cy="7" r="6"/>
	<path fill="#303C42" d="M10.0341797,22.1601563l-1.6499023-1.9804688c-0.1293945-0.1547852-0.3378906-0.215332-0.53125-0.1577148
		c-0.0742188,0.0229492-1.4916992,0.4663086-2.7753906,1.3564453c0.3206177-2.7547607,1.5476685-7.4465942,2.0623779-9.3443604
		c1.0725708,1.0341187,2.4713745,1.7290039,4.0267944,1.9128418C10.3709717,15.8502808,10.1149292,19.9065552,10.0341797,22.1601563
		z"/>
	<path fill="#303C42" d="M16.1469727,20.0219727c-0.190918-0.0581055-0.4018555,0.003418-0.53125,0.1577148l-1.6499023,1.9804688
		c-0.0808105-2.2545166-0.3370361-6.3131104-1.133606-8.2155151c1.5553589-0.1871948,2.9539795-0.8847046,4.0246582-1.921936
		c0.5129395,1.8905029,1.7442627,6.5955811,2.0654907,9.3557129C17.6386719,20.4882813,16.2211914,20.0449219,16.1469727,20.0219727
		z"/>
	<path fill="#303C42" d="M9.1118164,10.675293c-0.0449219,0.2021484,0.0395508,0.4111328,0.2124023,0.5253906
		c0.0834961,0.0551758,0.1796875,0.0830078,0.2758789,0.0830078c0.1020508,0,0.2036133-0.03125,0.2905273-0.0932617
		l2.1098633-1.5068359l2.109375,1.5068359c0.1679688,0.1210938,0.3945313,0.1245117,0.5664063,0.0102539
		c0.1728516-0.1142578,0.2573242-0.3232422,0.2124023-0.5253906l-0.6235352-2.8041992l2.3066406-1.9780273
		c0.1513672-0.1293945,0.2114258-0.3364258,0.152832-0.5268555c-0.059082-0.1899414-0.2250977-0.3276367-0.4228516-0.3496094
		l-2.9448242-0.3266602L12.46875,2.3203125c-0.0732422-0.1953125-0.2597656-0.324707-0.4682617-0.324707
		S11.6054688,2.125,11.5322266,2.3198242l-0.8886719,2.3701172L7.6987305,5.0166016
		c-0.1977539,0.0219727-0.3637695,0.159668-0.4228516,0.3496094c-0.0585938,0.1904297,0.0014648,0.3974609,0.152832,0.5268555
		l2.3066406,1.9780273L9.1118164,10.675293z"/>
	<path fill="#FFCB29" d="M8.9536133,5.8833008l2.1054688-0.2333984c0.1870117-0.0209961,0.3466797-0.1450195,0.4130859-0.3212891
		l0.5283203-1.4086914l0.527832,1.4082031c0.0664063,0.1767578,0.2260742,0.3007813,0.4130859,0.3217773l2.1054688,0.2333984
		l-1.6601563,1.4238281c-0.140625,0.1201172-0.203125,0.3076172-0.1630859,0.487793l0.4052734,1.8232422l-1.3378906-0.9560547
		c-0.1738281-0.1240234-0.4072266-0.1240234-0.5810547,0L10.371582,9.6181641l0.4052734-1.8232422
		c0.0400391-0.1801758-0.0224609-0.3676758-0.1630859-0.487793L8.9536133,5.8833008z"/>
	<path opacity="0.2" fill="#FFFFFF" d="M11.6414185,6.2322388c0.1870117-0.0209961,0.3466797-0.1450195,0.4130859-0.3212891
		l0.3462524-0.9232178l-0.4002686-1.0678101L11.472168,5.3286133c-0.0664063,0.1762695-0.2260742,0.300293-0.4130859,0.3212891
		L8.9536133,5.8833008l0.6679077,0.572876L11.6414185,6.2322388z"/>
	<path fill="#7CB342" d="M10.0428171,22.1601563l-1.6499023-1.9804688c-0.1289063-0.1547852-0.3388672-0.215332-0.5312495-0.1577148
		c-0.0742188,0.0229492-1.4916992,0.4663086-2.7753906,1.3564453c0.3206177-2.7547607,1.5476685-7.4465942,2.0623779-9.3443604
		c1.0725703,1.0341187,2.471374,1.7290039,4.026794,1.9128418C10.3796091,15.8502808,10.1235666,19.9065552,10.0428171,22.1601563z"
		/>
	<path fill="#7CB342" d="M16.155611,20.0219727c-0.1914072-0.0581055-0.4018564,0.003418-0.531251,0.1577148l-1.6499023,1.9804688
		c-0.0808105-2.2545166-0.3370361-6.3131104-1.133606-8.2155151c1.5553589-0.1871948,2.9539795-0.8847046,4.0246592-1.921936
		c0.5129395,1.8905029,1.7442627,6.5955811,2.0654907,9.3557129C17.6473103,20.4882813,16.2298298,20.0449219,16.155611,20.0219727z
		"/>
	<linearGradient id="SVGID_1_" gradientUnits="userSpaceOnUse" x1="10.2121134" y1="10.1745758" x2="20.1734791" y2="20.1359406">
		<stop  offset="0" style="stop-color:#010101;stop-opacity:0.1"/>
		<stop  offset="1" style="stop-color:#010101;stop-opacity:0"/>
	</linearGradient>
	<path fill="url(#SVGID_1_)" d="M16.8655109,12.0227051c-1.0706797,1.0372314-2.4693003,1.7347412-4.0246592,1.921936
		c0.4485474,1.071228,0.7218018,2.8252563,0.8928833,4.5567627l1.7941284,1.7941284l0.0964966-0.1158447
		c0.1293945-0.1542969,0.3398438-0.2158203,0.531251-0.1577148c0.0742188,0.0229492,1.4916992,0.4663086,2.7753906,1.3564453
		C18.6097736,18.6182861,17.3784504,13.913208,16.8655109,12.0227051z M10.726594,15.4942627
		c0.1271362-0.5888062,0.2728271-1.1264038,0.4488525-1.5473633c-1.2576904-0.1486206-2.402771-0.6436157-3.3659663-1.3696899
		L10.726594,15.4942627z"/>
	<linearGradient id="SVGID_2_" gradientUnits="userSpaceOnUse" x1="9.0313425" y1="4.2904053" x2="16.1155109" y2="11.3745728">
		<stop  offset="0" style="stop-color:#010101;stop-opacity:0.1"/>
		<stop  offset="1" style="stop-color:#010101;stop-opacity:0"/>
	</linearGradient>
	<path fill="url(#SVGID_2_)" d="M13.356904,4.6899414l1.7290039,0.1917725l-2.6851807-2.6851196l-0.0030518,0.0324707
		c0.0220337,0.0324097,0.0568848,0.0534058,0.0710449,0.0912476L13.356904,4.6899414z M9.735322,7.8710938L7.4286819,5.8930664
		l2.2468867,2.2468262L9.735322,7.8710938z M17.9900227,6.6316528l-1.2654419-1.2654419
		c0.0585938,0.1904297-0.0014648,0.3974609-0.152832,0.5268555l-2.3066416,1.9780273l0.6235352,2.8041992
		c0.0449219,0.2021484-0.0395508,0.4111328-0.2124023,0.5253906c-0.171875,0.1142578-0.3984375,0.1108398-0.5664063-0.0102539
		l-2.109375-1.5068359l-2.1098633,1.5068359c-0.0869141,0.0620117-0.1884766,0.0932617-0.2905273,0.0932617
		c-0.0961914,0-0.1923828-0.027832-0.2758789-0.0830078l1.7134399,1.7134399C11.3544626,12.9660034,11.6773386,13,12.0086374,13
		c3.3085938,0,6.000001-2.6914063,6.000001-6C18.0086384,6.8756714,17.99753,6.7541504,17.9900227,6.6316528z"/>
	<linearGradient id="SVGID_3_" gradientUnits="userSpaceOnUse" x1="3.3842826" y1="8.8971367" x2="22.2850552" y2="17.7107124">
		<stop  offset="0" style="stop-color:#FFFFFF;stop-opacity:0.2"/>
		<stop  offset="1" style="stop-color:#FFFFFF;stop-opacity:0"/>
	</linearGradient>
	<path fill="url(#SVGID_3_)" d="M17.6443481,11.1124878C18.4879761,9.9562988,18.9921875,8.5375977,18.9921875,7
		c0-3.8598633-3.1401367-7-7-7s-7,3.1401367-7,7c0,1.5444336,0.5087891,2.968811,1.3591919,4.1277466
		C5.982666,12.4487305,4,19.6870117,4,22.5c0,0.2021484,0.121582,0.3847656,0.3085938,0.4619141
		c0.1860352,0.078125,0.4023438,0.0351563,0.5449219-0.1083984c0.9404297-0.9399414,2.3613281-1.5371094,2.9838867-1.7675781
		l2.2783203,2.734375C10.2128906,23.9365234,10.3544922,24,10.5,24c0.0556641,0,0.1123047-0.0092773,0.1669922-0.0288086
		C10.8637695,23.9013672,10.9970703,23.7163086,11,23.5073242c0.0405884-2.7915649,0.3482666-7.2237549,1-8.9997559
		c0.6517334,1.776001,0.9594116,6.2081909,1,8.9997559c0.0029297,0.2089844,0.1362305,0.394043,0.3330078,0.4638672
		C13.3876953,23.9907227,13.4443359,24,13.5,24c0.1455078,0,0.2871094-0.0634766,0.3842773-0.1796875l2.2788086-2.7348633
		c0.6210938,0.2294922,2.0400391,0.824707,2.9833984,1.7680664c0.144043,0.1435547,0.3583984,0.1875,0.5449219,0.1083984
		C19.878418,22.8847656,20,22.7021484,20,22.5C20,19.6779175,18.0037231,12.399353,17.6443481,11.1124878z"/>
</g>
<g>
</g>
<g>
</g>
<g>
</g>
<g>
</g>
<g>
</g>
<g>
</g>
<g>
</g>
<g>
</g>
<g>
</g>
<g>
</g>
<g>
</g>
<g>
</g>
<g>
</g>
<g>
</g>
<g>
</g>
</svg>
