<svg xmlns="http://www.w3.org/2000/svg"  viewBox="0 0 100 100" width="100px" height="100px"><path fill="#abd451" d="m90.37,18.05c-3.74-3.37-9.51-3.16-13.26.19l-39.85,36.72-14.68-9.52c-4.12-2.87-9.81-2.56-13.31,1.04-3.94,4.05-3.81,10.48.21,14.36l21.49,20.73c4.03,3.88,10.45,3.71,14.26-.38l45.77-49.19c3.68-3.96,3.49-10.23-.63-13.95Z"/><circle cx="29.86" cy="65.39" r="5" fill="#fff"/><circle cx="29.86" cy="65.39" r="2" fill="#4a254b"/><circle cx="45.86" cy="65.39" r="5" fill="#fff"/><circle cx="45.86" cy="65.39" r="2" fill="#4a254b"/><path fill="#4a254b" d="m34.41,71.39c-.31,0-.54.28-.5.59.3,1.91,1.95,3.38,3.95,3.38s3.65-1.47,3.95-3.38c.05-.31-.19-.59-.5-.59h-6.9Z"/></svg>